<mxfile host="Electron" modified="2024-02-07T17:42:50.223Z" agent="Mozilla/5.0 (Macintosh; Intel Mac OS X 10_15_7) AppleWebKit/537.36 (KHTML, like Gecko) draw.io/23.0.2 Chrome/120.0.6099.109 Electron/28.1.0 Safari/537.36" etag="eWtTMoMLpo5nbQiTtW8a" version="23.0.2" type="device">
  <diagram name="Seite-1" id="epYqo5flYDjjZGRkv8W-">
    <mxGraphModel dx="1368" dy="1029" grid="1" gridSize="10" guides="1" tooltips="1" connect="1" arrows="1" fold="1" page="1" pageScale="1" pageWidth="827" pageHeight="1169" math="0" shadow="0">
      <root>
        <mxCell id="0" />
        <mxCell id="1" parent="0" />
        <mxCell id="Pm1bcs2Rdpl-b2MjG9UA-4" value="Webserver" style="swimlane;fontStyle=0;childLayout=stackLayout;horizontal=1;startSize=50;fillColor=none;horizontalStack=0;resizeParent=1;resizeParentMax=0;resizeLast=0;collapsible=1;marginBottom=0;whiteSpace=wrap;html=1;shadow=0;" parent="1" vertex="1">
          <mxGeometry x="530" y="110" width="260" height="220" as="geometry">
            <mxRectangle x="380" y="320" width="100" height="30" as="alternateBounds" />
          </mxGeometry>
        </mxCell>
        <mxCell id="Pm1bcs2Rdpl-b2MjG9UA-9" value="Userclient" style="swimlane;fontStyle=0;childLayout=stackLayout;horizontal=1;startSize=50;fillColor=none;horizontalStack=0;resizeParent=1;resizeParentMax=0;resizeLast=0;collapsible=1;marginBottom=0;whiteSpace=wrap;html=1;shadow=0;" parent="1" vertex="1">
          <mxGeometry x="20" y="110" width="260" height="220" as="geometry">
            <mxRectangle x="80" y="120" width="100" height="30" as="alternateBounds" />
          </mxGeometry>
        </mxCell>
        <mxCell id="Pm1bcs2Rdpl-b2MjG9UA-12" value="" style="endArrow=classic;html=1;rounded=0;exitX=1;exitY=0.5;exitDx=0;exitDy=0;entryX=0;entryY=0.5;entryDx=0;entryDy=0;" parent="1" source="Pm1bcs2Rdpl-b2MjG9UA-9" target="Pm1bcs2Rdpl-b2MjG9UA-4" edge="1">
          <mxGeometry width="50" height="50" relative="1" as="geometry">
            <mxPoint x="350" y="280" as="sourcePoint" />
            <mxPoint x="400" y="230" as="targetPoint" />
          </mxGeometry>
        </mxCell>
        <mxCell id="Pm1bcs2Rdpl-b2MjG9UA-13" value="imap tcp:993" style="edgeLabel;html=1;align=center;verticalAlign=middle;resizable=0;points=[];" parent="Pm1bcs2Rdpl-b2MjG9UA-12" vertex="1" connectable="0">
          <mxGeometry x="0.0357" relative="1" as="geometry">
            <mxPoint as="offset" />
          </mxGeometry>
        </mxCell>
      </root>
    </mxGraphModel>
  </diagram>
</mxfile>
